<svg xmlns="http://www.w3.org/2000/svg" width="200" height="137.76" viewBox="0 0 200 137.76"><g transform="translate(-10.71 -264.986)"><path d="M24.291,264.986v12.346h35.8V264.986Zm-9.216,15.539a4.355,4.355,0,0,0-4.365,4.365V398.381a4.355,4.355,0,0,0,4.365,4.365h191.27a4.355,4.355,0,0,0,4.365-4.365V284.89a4.355,4.355,0,0,0-4.365-4.365Zm169.091,16.049a6.789,6.789,0,1,1-6.789,6.789,6.79,6.79,0,0,1,6.789-6.789Zm-66.472,1.746a43.827,43.827,0,1,1-43.827,43.827,43.827,43.827,0,0,1,43.827-43.827Zm0,12.344a31.481,31.481,0,1,0,31.481,31.482,31.482,31.482,0,0,0-31.481-31.482Z" transform="translate(0 0)"/></g></svg>